<?xml version="1.0" encoding="UTF-8" standalone="no"?>
<svg
   viewBox="0 0 36 36"
   width="360"
   height="360"
   version="1.1"
   id="svg6"
   sodipodi:docname="icons8-linkedin.svg"
   inkscape:version="1.1.2 (0a00cf5339, 2022-02-04, custom)"
   xmlns:inkscape="http://www.inkscape.org/namespaces/inkscape"
   xmlns:sodipodi="http://sodipodi.sourceforge.net/DTD/sodipodi-0.dtd"
   xmlns="http://www.w3.org/2000/svg"
   xmlns:svg="http://www.w3.org/2000/svg">
  <defs
     id="defs10" />
  <sodipodi:namedview
     id="namedview8"
     pagecolor="#ffffff"
     bordercolor="#666666"
     borderopacity="1.0"
     inkscape:pageshadow="2"
     inkscape:pageopacity="0.0"
     inkscape:pagecheckerboard="0"
     showgrid="false"
     fit-margin-top="0"
     fit-margin-left="0"
     fit-margin-right="0"
     fit-margin-bottom="0"
     inkscape:zoom="1.2271249"
     inkscape:cx="178.05849"
     inkscape:cy="193.13438"
     inkscape:window-width="1920"
     inkscape:window-height="1011"
     inkscape:window-x="0"
     inkscape:window-y="32"
     inkscape:window-maximized="1"
     inkscape:current-layer="svg6" />
  <path
     id="path2"
     style="stroke-width:10;fill:#2a7fff"
     d="M 50 0 C 22.39 0 0 22.38 0 50 L 0 310 C 0 337.62 22.39 360 50 360 L 310 360 C 337.62 360 360 337.62 360 310 L 360 50 C 360 22.38 337.62 0 310 0 L 50 0 z M 85.140625 60 C 100.35063 60 109.72 70.800234 110 84.990234 C 110 98.870234 100.34961 110 84.849609 110 L 84.570312 110 C 69.650312 110 60 98.880234 60 84.990234 C 60 70.800234 69.950625 60 85.140625 60 z M 60 130 L 110 130 L 110 300 L 60 300 L 60 130 z M 140 130 L 190 130 L 190 156.16016 C 197.21 145.00016 208.50086 130 237.38086 130 C 273.16086 130 299.99023 152.50023 299.99023 202.74023 L 300 300 L 250 300 L 250 209.00977 C 250 187.02977 237.75008 172.0293 218.08008 172.0293 C 203.07008 172.0293 194.94977 182.14969 191.00977 191.92969 C 189.56977 195.42969 190 205.11 190 210 L 190 300 L 140 300 L 140 130 z "
     transform="scale(0.1)" />
</svg>
